<svg viewBox="0 0 24 24" xmlns="http://www.w3.org/2000/svg">
  <path fill="white" d="M12 .297c-6.63 0-12 5.373-12 12 0 5.302 3.438 9.8 8.207 11.385.6.113.793-.26.793-.577v-2.234c-3.338.724-4.033-1.416-4.033-1.416-.546-1.387-1.333-1.757-1.333-1.757-1.09-.745.083-.729.083-.729 1.205.084 1.838 1.24 1.838 1.24 1.07 1.835 2.807 1.304 3.49.998.108-.776.42-1.304.763-1.604-2.665-.3-5.467-1.332-5.467-5.93 0-1.31.467-2.382 1.235-3.222-.123-.303-.535-1.523.117-3.176 0 0 1.007-.322 3.3 1.23.957-.266 1.983-.399 3.003-.403 1.02.004 2.047.137 3.003.403 2.293-1.552 3.3-1.23 3.3-1.23.653 1.653.24 2.873.117 3.176.77.84 1.235 1.912 1.235 3.222 0 4.61-2.807 5.626-5.48 5.922.43.372.823 1.102.823 2.222v3.293c0 .32.192.693.8.575C20.565 22.094 24 17.597 24 12.297c0-6.627-5.373-12-12-12"/>
</svg>
