<svg xmlns="http://www.w3.org/2000/svg" viewBox="0 0 24 24" fill="white">
  <path d="M12 2.2c3.2 0 3.584.012 4.849.07 1.366.062 2.633.334 3.608 1.308.975.976 1.246 2.243 1.308 3.609.058 1.265.07 1.645.07 4.849s-.012 3.584-.07 4.849c-.062 1.366-.334 2.633-1.308 3.608-.976.975-2.243 1.246-3.609 1.308-1.265.058-1.645.07-4.849.07s-3.584-.012-4.849-.07c-1.366-.062-2.633-.334-3.609-1.308-.975-.976-1.246-2.243-1.308-3.609C2.175 15.584 2.163 15.204 2.163 12s.012-3.584.07-4.849c.062-1.366.334-2.633 1.308-3.609.976-.974 2.243-1.246 3.609-1.308C8.416 2.175 8.796 2.163 12 2.163m0-2.2C8.741 0 8.332.013 7.052.072 5.771.132 4.515.4 3.372 1.068c-1.14.667-2.028 1.554-2.695 2.694C.4 5.513.132 6.769.072 8.05.013 9.33 0 9.739 0 12s.013 2.67.072 3.95c.06 1.281.328 2.537.895 3.678.667 1.141 1.554 2.028 2.694 2.695 1.141.667 2.396.935 3.678.995C8.332 23.987 8.741 24 12 24s3.668-.013 4.948-.072c1.282-.06 2.537-.328 3.678-.995 1.141-.667 2.028-1.554 2.695-2.695.567-1.141.835-2.396.895-3.678.06-1.281.072-1.69.072-3.95s-.013-2.67-.072-3.95c-.06-1.281-.328-2.537-.895-3.678-.667-1.141-1.554-2.028-2.695-2.694-1.141-.667-2.396-.935-3.678-.995C15.668.013 15.259 0 12 0zm0 5.838a6.162 6.162 0 100 12.324 6.162 6.162 0 000-12.324zm0 10.162a3.999 3.999 0 110-7.998 3.999 3.999 0 010 7.998zm6.406-10.845a1.44 1.44 0 100-2.881 1.44 1.44 0 000 2.881z"/>
</svg>
