<svg viewBox="0 0 256 512" xmlns="http://www.w3.org/2000/svg">
  <path fill="#47A248" d="M119.5 4.2c3.2-4.5 7.7-4.5 10.9 0 7 9.7 13.8 19.6 20.7 29.5 14.7 21.2 27.5 43.7 37.7 67.6 4.3 10.2 8.6 20.4 12.5 30.8 18 46.8 25.3 95.5 21 145.4-2.7 32.6-10.2 64-24 94-5.4 11.8-12 22.7-19.7 32.9-4.8 6.3-10.2 11.9-15.4 17.7-1.1 1.1-2.2 1.5-3.7 1.5-8.2-.3-16.3.5-24.5 0-1.6 0-2.7-.6-3.8-1.7-7.7-7.7-15.1-15.8-21.6-24.8-10-14-17.6-29.5-23.3-45.8-12.5-35-18.7-71.3-20.6-108.3-2.4-47.3 2.9-93.3 18.3-138.4 10.3-30.7 23.8-59.8 41-87.2 5.9-9.3 11.7-18.6 17.6-27.9z"/>
  <path fill="#AAAAAA" d="M136 510.8c-4.3-1.6-6.5-5.3-8.5-9.2-4.3-8.5-7.6-17.3-10.5-26.4-2.1-6.6-4.2-13.2-6.1-19.9-2.1-7.1-3.7-14.3-4.2-21.7-.5-6.8 2-12.3 7.2-16.8 2.3-2 4.6-3.9 6.9-5.9 2.1-1.8 4.2-3.7 6.2-5.7 2.1-2.1 4.3-3.8 6.6-5.6 1.2-.9 2.4-.6 3.5.2.9.7 1.3 1.6 1.4 2.7.1 2.6.4 5.2.6 7.8 1.1 14.1.5 28.1-1.3 42.1-1.4 10.7-3.7 21.1-7.4 31.3-3.5 9.6-6.6 19.3-9.6 29.1-.1.2-.1.4-.2.5-.3.7-.7 1.3-1.2 2.1z"/>
</svg>
