<svg viewBox="0 0 256 282" xmlns="http://www.w3.org/2000/svg">
  <path fill="#8CC84B" d="M116.504 12.68c15.097-8.72 27.725-8.72 42.822 0l82.457 47.6c14.274 8.24 21.411 23.52 21.411 41.82v95.2c0 18.3-7.137 33.58-21.411 41.82l-82.457 47.6c-15.097 8.72-27.725 8.72-42.822 0l-82.457-47.6C19.773 231.88 12.636 216.6 12.636 198.3v-95.2c0-18.3 7.137-33.58 21.411-41.82l82.457-47.6z"/>
  <path fill="#FFFFFF" d="M116.988 206.22c8.72 4.96 16.68 9.2 25.4 9.2 13.64 0 22.36-5.44 22.36-26.4V114.3h-16.2v74.72c0 11.92-5.44 13.16-14.64 8.48-2.96-1.6-7.6-3.92-11.44-5.92l-5.68 14.64zm82.456-4.96c8.72 4.96 16.68 9.2 25.4 9.2 13.64 0 22.36-5.44 22.36-26.4V114.3h-16.2v74.72c0 11.92-5.44 13.16-14.64 8.48-2.96-1.6-7.6-3.92-11.44-5.92l-5.68 14.64z"/>
</svg>
